<svg xmlns="http://www.w3.org/2000/svg" width="55" height="59" fill="none"><g filter="url(#a)"><path fill="url(#b)" d="m34.701 27.022-4.006-9.177-.874-.606-1.024-.326-1.386-.373-1.626.699-1.085.605 4.097 9.178h5.904Z"/></g><g filter="url(#c)"><path fill="url(#d)" d="m20.323 23.953 4.007 9.2.873.607 1.024.326 1.386.374 1.627-.7 1.084-.607-4.097-9.2h-5.904Z"/></g><path fill="#fff" d="m24.486 17.965-6.22 8.99 6.22.067 4.496-9.057c.316-.927 1.304-.387 1.758 0-1.942-3.559-4.979-1.483-6.254 0ZM30.514 33.035l6.22-8.99-6.22-.067-4.496 9.057c-.316.927-1.304.387-1.758 0 1.942 3.559 4.979 1.483 6.254 0Z"/><defs><linearGradient id="b" x1="33.665" x2="28.914" y1="27.022" y2="18.133" gradientUnits="userSpaceOnUse"><stop/><stop offset=".495" stop-color="#fff"/><stop offset="1" stop-color="#fff"/></linearGradient><linearGradient id="d" x1="21.359" x2="26.128" y1="23.953" y2="32.854" gradientUnits="userSpaceOnUse"><stop stop-color="#0C0C0C"/><stop offset=".495" stop-color="#fff"/><stop offset="1" stop-color="#fff"/></linearGradient><filter id="a" width="50.001" height="50.482" x="4.7" y=".54" color-interpolation-filters="sRGB" filterUnits="userSpaceOnUse"><feFlood flood-opacity="0" result="BackgroundImageFix"/><feColorMatrix in="SourceAlpha" result="hardAlpha" values="0 0 0 0 0 0 0 0 0 0 0 0 0 0 0 0 0 0 127 0"/><feOffset dy="4"/><feGaussianBlur stdDeviation="10"/><feComposite in2="hardAlpha" operator="out"/><feColorMatrix values="0 0 0 0 0 0 0 0 0 0 0 0 0 0 0 0 0 0 0.25 0"/><feBlend in2="BackgroundImageFix" result="effect1_dropShadow_102_283"/><feBlend in="SourceGraphic" in2="effect1_dropShadow_102_283" result="shape"/></filter><filter id="c" width="50.001" height="50.507" x=".323" y="7.953" color-interpolation-filters="sRGB" filterUnits="userSpaceOnUse"><feFlood flood-opacity="0" result="BackgroundImageFix"/><feColorMatrix in="SourceAlpha" result="hardAlpha" values="0 0 0 0 0 0 0 0 0 0 0 0 0 0 0 0 0 0 127 0"/><feOffset dy="4"/><feGaussianBlur stdDeviation="10"/><feComposite in2="hardAlpha" operator="out"/><feColorMatrix values="0 0 0 0 0 0 0 0 0 0 0 0 0 0 0 0 0 0 0.25 0"/><feBlend in2="BackgroundImageFix" result="effect1_dropShadow_102_283"/><feBlend in="SourceGraphic" in2="effect1_dropShadow_102_283" result="shape"/></filter></defs></svg>