<svg fill="none" xmlns="http://www.w3.org/2000/svg">
<style>
g{display:none}
g:target{display:inline}
</style>
<defs>
<!-- site logo. color / hover - fill   -->
<symbol id="logo" viewBox="16 10 44 46">
<path d="M51.1613 38.2052L42.7265 18.8842L40.8873 17.6092L38.731 16.9227L35.8137 16.1381L32.3891 17.6092L30.106 18.8842L38.731 38.2052H51.1613Z"
fill-opacity="0.7"/>
<path d="M20.8927 31.7431L29.3275 51.1094L31.1667 52.3873L33.3229 53.0755L36.2402 53.8619L39.6649 52.3873L41.948 51.1094L33.3229 31.7431H20.8927Z"
fill-opacity="0.7"/>
<path d="M29.6545 19.136L16.5599 38.0638L29.6545 38.2041L39.1204 19.136C39.785 17.1853 41.8644 18.3232 42.8211 19.136C38.7327 11.6453 32.3399 16.0149 29.6545 19.136Z" />
<path d="M42.3455 50.864L55.4401 31.9362L42.3455 31.7959L32.8796 50.864C32.215 52.8147 30.1356 51.6768 29.1789 50.864C33.2673 58.3547 39.6601 53.9851 42.3455 50.864Z"/>
</symbol>

<!-- burger menu.color /  hover - fill   -->
<symbol id="menu" viewBox="0 0 24 24"><path d="M2 5.995C2 5.445 2.446 5 2.995 5H11.005C11.2689 5 11.522 5.10483 11.7086 5.29143C11.8952 5.47803 12 5.73111 12 5.995C12 6.25889 11.8952 6.51197 11.7086 6.69857C11.522 6.88517 11.2689 6.99 11.005 6.99H2.995C2.73111 6.99 2.47803 6.88517 2.29143 6.69857C2.10483 6.51197 2 6.25889 2 5.995ZM2 12C2 11.45 2.446 11.005 2.995 11.005H21.005C21.2689 11.005 21.522 11.1098 21.7086 11.2964C21.8952 11.483 22 11.7361 22 12C22 12.2639 21.8952 12.517 21.7086 12.7036C21.522 12.8902 21.2689 12.995 21.005 12.995H2.995C2.73111 12.995 2.47803 12.8902 2.29143 12.7036C2.10483 12.517 2 12.2639 2 12ZM2.995 17.01C2.73111 17.01 2.47803 17.1148 2.29143 17.3014C2.10483 17.488 2 17.7411 2 18.005C2 18.2689 2.10483 18.522 2.29143 18.7086C2.47803 18.8952 2.73111 19 2.995 19H15.005C15.2689 19 15.522 18.8952 15.7086 18.7086C15.8952 18.522 16 18.2689 16 18.005C16 17.7411 15.8952 17.488 15.7086 17.3014C15.522 17.1148 15.2689 17.01 15.005 17.01H2.995Z"/></symbol>

<!-- facebook. color / hover - fill    -->
<symbol id="fb" viewBox="0 0 40 40">
<path d="M22.6402 11.4799C22.8202 11.4799 23.0002 11.4799 23.3602 11.4799V14.1799C23.1802 14.1799 22.8202 14.1799 22.4602 14.1799C22.1002 14.1799 21.7402 14.1799 21.5602 14.3599C21.3802 14.5399 21.3802 14.7199 21.3802 15.1399C21.3802 15.4999 21.3802 15.7399 21.3802 16.0999H23.3602V18.3799H21.3802V28.2799H18.3202V18.3199H16.7002V16.0399H18.3202V15.2599C18.3202 13.9399 18.5002 12.9799 18.8602 12.5599C19.4002 11.7799 20.4802 11.4199 22.1002 11.4199C22.2802 11.4799 22.4602 11.4799 22.6402 11.4799Z"/>
</symbol>
<!-- instagram. color / hover - fill    -->
<symbol id="ig" viewBox="0 0 40 40">
<path d="M29.5381 16.0669C29.5263 15.2611 29.3771 14.4617 29.0913 13.7081C28.5913 12.4212 27.5731 11.4037 26.284 10.9055C25.5388 10.6256 24.7509 10.4755 23.9533 10.4584C22.9277 10.4127 22.6025 10.3999 19.9988 10.3999C17.3952 10.3999 17.0615 10.3999 16.0433 10.4584C15.2468 10.4755 14.4589 10.6256 13.7136 10.9055C12.4246 11.4037 11.4053 12.4212 10.9063 13.7081C10.6259 14.4521 10.4745 15.2388 10.4596 16.0339C10.4138 17.0589 10.3999 17.3836 10.3999 19.9829C10.3999 22.5822 10.3999 22.9143 10.4596 23.9319C10.4756 24.7281 10.6259 25.5136 10.9063 26.2598C11.4064 27.5456 12.4246 28.5632 13.7147 29.0613C14.4568 29.3508 15.2447 29.5148 16.0443 29.5403C17.0711 29.5861 17.3963 29.5999 19.9999 29.5999C22.6035 29.5999 22.9373 29.5999 23.9555 29.5403C24.7519 29.5243 25.5398 29.3742 26.2862 29.0943C27.5752 28.5951 28.5934 27.5775 29.0935 26.2917C29.3739 25.5466 29.5242 24.7611 29.5402 23.9638C29.586 22.9398 29.5999 22.6152 29.5999 20.0148C29.5978 17.4155 29.5978 17.0855 29.5381 16.0669ZM19.9924 24.8984C17.2694 24.8984 15.0634 22.6961 15.0634 19.9776C15.0634 17.259 17.2694 15.0567 19.9924 15.0567C22.7134 15.0567 24.9214 17.259 24.9214 19.9776C24.9214 22.6961 22.7134 24.8984 19.9924 24.8984ZM25.1176 16.0222C24.4811 16.0222 23.9683 15.5091 23.9683 14.8747C23.9683 14.2403 24.4811 13.7273 25.1176 13.7273C25.752 13.7273 26.2659 14.2403 26.2659 14.8747C26.2659 15.5091 25.752 16.0222 25.1176 16.0222Z"/>
<path d="M19.9942 22.9821C21.6527 22.9821 22.9972 21.6376 22.9972 19.9791C22.9972 18.3206 21.6527 16.9761 19.9942 16.9761C18.3357 16.9761 16.9912 18.3206 16.9912 19.9791C16.9912 21.6376 18.3357 22.9821 19.9942 22.9821Z"/>
</symbol>
<!-- youtube. color / hover - fill    -->
<symbol id="yt" viewBox="0 0 40 40">
<path fill-rule="evenodd" clip-rule="evenodd" d="M26.1799 12.4999C25.1599 12.4399 23.0599 12.3799 19.8799 12.3799H19.4599C16.3999 12.3799 14.3599 12.4399 13.3399 12.5599C11.9599 12.6799 10.9999 13.0399 10.4599 13.5199C9.97988 13.9399 9.61989 14.7199 9.49989 15.7399C9.43989 16.3999 9.37988 17.7799 9.37988 19.8799V20.1799C9.37988 22.1599 9.43988 23.5399 9.55988 24.1999C9.73988 25.1599 10.0399 25.8799 10.6399 26.2999C11.2399 26.7799 12.2599 27.0799 13.6999 27.1999C14.7199 27.2599 16.8199 27.3199 19.9999 27.3199H20.4199C23.4799 27.3199 25.5199 27.2599 26.5399 27.1399C27.9199 27.0199 28.8799 26.6599 29.4199 26.1799C29.8999 25.7599 30.2599 24.9799 30.3799 23.9599C30.4399 23.2999 30.4999 21.9199 30.4999 19.8199V19.5199C30.4999 17.5399 30.4399 16.1599 30.3199 15.4999C30.1399 14.5399 29.8399 13.8199 29.2399 13.3999C28.6399 12.9199 27.6199 12.6199 26.1799 12.4999ZM23.8399 19.8799L17.2399 23.8399V15.9199L23.8399 19.8799Z"/>
</symbol>

<!-- slider left. color - stroke, hover -  stroke-opacity: 0.5;    -->
<symbol id="left" viewBox="0 0 24 24">
<path d="M15 18L9 12L15 6" stroke="white" stroke-linecap="round" stroke-linejoin="round"/>
</symbol>
<!-- slider right. color - stroke, hover -  stroke-opacity: 0.5;    -->
<symbol id="right" viewBox="0 0 24 24">
<path d="M9 18L15 12L9 6" stroke="white" stroke-linecap="round" stroke-linejoin="round"/>
</symbol>

<!-- close button. color - stroke, hover -  stroke-opacity: 0.5;    -->
<symbol id="close" viewBox="0 0 20 20">
<path d="M15 5L5 15"  stroke-width="1.3" stroke-linecap="round" stroke-linejoin="round"/>
<path d="M5 5L15 15" stroke-width="1.3" stroke-linecap="round" stroke-linejoin="round"/>
</symbol>

<!-- heart button. color - stroke, hover -  stroke-opacity: 0.5;    -->
<symbol id="heart" viewBox="0 0 24 24">
<path d="M20.8401 4.61012C20.3294 4.09912 19.7229 3.69376 19.0555 3.4172C18.388 3.14064 17.6726 2.99829 16.9501 2.99829C16.2276 2.99829 15.5122 3.14064 14.8448 3.4172C14.1773 3.69376 13.5709 4.09912 13.0601 4.61012L12.0001 5.67012L10.9401 4.61012C9.90843 3.57842 8.50915 2.99883 7.05012 2.99883C5.59109 2.99883 4.19181 3.57842 3.16012 4.61012C2.12843 5.64181 1.54883 7.04108 1.54883 8.50012C1.54883 9.95915 2.12843 11.3584 3.16012 12.3901L4.22012 13.4501L12.0001 21.2301L19.7801 13.4501L20.8401 12.3901C21.3511 11.8794 21.7565 11.2729 22.033 10.6055C22.3096 9.93801 22.4519 9.2226 22.4519 8.50012C22.4519 7.77763 22.3096 7.06222 22.033 6.39476C21.7565 5.7273 21.3511 5.12087 20.8401 4.61012V4.61012Z" stroke-width="2" stroke-linecap="round" stroke-linejoin="round"/>
</symbol>

<symbol id="slide-left" viewBox="0 0 32 32">
   <path d="M20.7329 26.7293C20.9041 26.5524 21 26.3149 21 26.0675C21 25.8202 20.9041 25.5826 20.7329 25.4057L11.1655 15.5L20.7329 5.5963C20.9041 5.41936 21 5.18182 21 4.93447C21 4.68712 20.9041 4.44958 20.7329 4.27264C20.6496 4.18636 20.5501 4.11778 20.4402 4.07095C20.3303 4.02412 20.2122 4 20.0928 4C19.9735 4 19.8554 4.02412 19.7455 4.07095C19.6355 4.11778 19.536 4.18636 19.4528 4.27264L9.2787 14.8084C9.10001 14.9935 9 15.2416 9 15.5C9 15.7584 9.10001 16.0065 9.2787 16.1916L19.4528 26.7274C19.536 26.8136 19.6355 26.8822 19.7455 26.929C19.8554 26.9759 19.9735 27 20.0928 27C20.2121 27 20.3303 26.9759 20.4402 26.929C20.5501 26.8822 20.6496 26.8136 20.7329 26.7274L20.7329 26.7293Z"/>
</symbol>
<symbol id="slide-right" viewBox="0 0 32 32">
   <path d="M10.2671 4.27066C10.0959 4.4476 10 4.68514 10 4.93249C10 5.17984 10.0959 5.41737 10.2671 5.59432L19.8345 15.5L10.2671 25.4037C10.0959 25.5806 10 25.8182 10 26.0655C10 26.3129 10.0959 26.5504 10.2671 26.7274C10.3504 26.8136 10.4499 26.8822 10.5598 26.9291C10.6697 26.9759 10.7879 27 10.9072 27C11.0265 27 11.1446 26.9759 11.2545 26.9291C11.3645 26.8822 11.464 26.8136 11.5472 26.7274L21.7213 16.1916C21.9 16.0065 22 15.7584 22 15.5C22 15.2416 21.9 14.9935 21.7213 14.8084L11.5472 4.27264C11.464 4.18636 11.3645 4.11778 11.2545 4.07095C11.1446 4.02413 11.0265 4 10.9072 4C10.7879 4 10.6697 4.02413 10.5598 4.07095C10.4499 4.11778 10.3504 4.18636 10.2671 4.27264V4.27066Z"/>
</symbol>


</defs>
</svg>
