<svg fill="none"  viewBox="16 10 44 46" xmlns="http://www.w3.org/2000/svg"><path d="M51.1613 38.2052L42.7265 18.8842L40.8873 17.6092L38.731 16.9227L35.8137 16.1381L32.3891 17.6092L30.106 18.8842L38.731 38.2052H51.1613Z" fill="#ddd"/><path d="M20.8927 31.7431L29.3275 51.1094L31.1667 52.3873L33.3229 53.0755L36.2402 53.8619L39.6649 52.3873L41.948 51.1094L33.3229 31.7431H20.8927Z" fill="#ddd"/><path d="M29.6545 19.136L16.5599 38.0638L29.6545 38.2041L39.1204 19.136C39.785 17.1853 41.8644 18.3232 42.8211 19.136C38.7327 11.6453 32.3399 16.0149 29.6545 19.136Z" fill="#fff"/><path d="M42.3455 50.864L55.4401 31.9362L42.3455 31.7959L32.8796 50.864C32.215 52.8147 30.1356 51.6768 29.1789 50.864C33.2673 58.3547 39.6601 53.9851 42.3455 50.864Z" fill="#fff"/></svg>